PathFileType	4	(X/Y/Z)	C:/Users/beibeiliu/ov580/test_trc\sequence.36_training_dense_left.trc
DataRate	CameraRate	NumFrames	NumMarkers	Units	OrigDataRate	OrigDataStartFrame	OrigNumFrames
120	120	18	19	mm	120	64	255
Frame#	Time	ThumbCMC			ThumbMCP			ThumbIP			ThumbTip			IndexMCP			IndexPIP			IndexTip			MiddleMCP			MiddlePIP			MiddleTip			RingMCP			RingPIP			RingTip			PinkyMCP			PinkyPIP			PinkyTip			BackHand1			BackHand2			BackHand3	
		X0	Y0	Z0	X1	Y1	Z1	X2	Y2	Z2	X3	Y3	Z3	X4	Y4	Z4	X5	Y5	Z5	X6	Y6	Z6	X7	Y7	Z7	X8	Y8	Z8	X9	Y9	Z9	X10	Y10	Z10	X11	Y11	Z11	X12	Y12	Z12	X13	Y13	Z13	X14	Y14	Z14	X15	Y15	Z15	X16	Y16	Z16	X17	Y17	Z17	X18	Y18	Z18	
63	0.525	-147.736	28.8518	87.4218	-128.459	25.4274	62.5619	-121.922	24.0981	41.1254	-121.643	17.7809	16.7714	-158.249	56.5748	27.1358	-141.44	46.14	5.47525	-124.842	23.5598	15.3676	-170.106	45.029	14.5418	-150.669	33.3006	-1.86095	-135.418	11.9825	18.0913	-181.729	28.9655	18.2085	-158.635	18.3052	3.922	-148.111	1.29125	22.257	-190.456	14.3414	24.9701	-171.488	4.32383	8.81055	-152.356	-1.80349	27.8268	-195.555	26.0406	64.8714	-202.358	15.8256	88.7815	-180.287	42.1571	81.0971	
64	0.533333	-150.837	33.172	93.5929	-128.295	28.0919	72.8752	-119.522	29.0801	45.1504	-122.088	20.8942	25.8877	-159.129	60.607	32.7044	-140.974	50.2335	12.5588	-124.223	31.9206	20.2188	-169.618	51.6699	23.6584	-150	35.3993	5.4503	-136.361	14.1282	24.6803	-182.934	32.7269	22.0599	-160.436	22.2803	9.897	-146.727	7.3151	30.547	-188.69	18.8188	31.0758	-170.007	10.1279	16.1755	-153.697	-2.21073	31.2356	-197.875	28.6876	71.1089	-200.08	20.0575	95.075	-179.623	43.5573	88.8953	
65	0.541667	-150.821	36.7673	101.572	-129.818	33.9876	75.2986	-121.754	30.4745	57.9269	-120.994	25.5651	33.2372	-160.354	65.1528	45.5094	-143.178	54.7661	21.0176	-124.198	32.5374	27.9863	-170.184	55.5461	31.3505	-152.546	39.3004	12.2724	-138.795	17.7976	27.4402	-179.066	38.429	30.8268	-158.236	25.5841	18.8914	-147.062	9.3597	37.0077	-187.907	21.9489	35.5112	-171.385	11.2283	23.0742	-150.838	6.6878	39.6503	-197.805	30.0778	79.87	-204.042	23.8137	99.5531	-184.41	45.7727	96.6728	
66	0.55	-149.737	40.4136	108.999	-128.126	37.2808	86.4371	-121.274	35.3363	62.7144	-118.699	29.0439	38.8143	-160.046	68.976	53.3207	-143.242	61.3181	28.6563	-123.993	38.7678	34.4179	-172.802	57.5087	37.1511	-153.172	49.6634	18.6534	-137.133	22.7284	35.8787	-180.758	39.9969	37.0135	-160.75	27.4253	22.9639	-145.705	15.0214	40.3081	-192.023	22.7902	45.2421	-171.945	17.9044	30.1646	-153.515	5.30557	42.6068	-198.777	34.3205	87.1491	-202.374	25.3383	106.472	-184.602	49.4327	104.598	
67	0.558333	-150.293	44.6576	115.006	-129.596	39.7626	92.5724	-119.695	39.8591	68.3494	-123.616	31.2114	44.5771	-163.02	69.1522	57.0581	-145.456	64.5695	34.9375	-124.985	43.6976	37.9701	-174.437	57.8504	44.1689	-154.448	48.0512	23.8094	-138.315	25.458	37.3797	-182.66	42.2758	43.2948	-159.677	30.8716	29.5689	-145.421	17.7953	46.6887	-190.905	24.7556	46.3527	-170.725	18.0076	34.3635	-151.771	10.4415	50.4852	-201.042	36.0545	91.5003	-201.529	28.1228	111.711	-184.98	51.2545	109.038	
68	0.566667	-151.071	44.983	120.454	-129.157	41.562	97.1171	-123.593	40.5959	76.0024	-120.916	33.4721	50.1121	-162.482	72.5473	59.2979	-144.531	63.7667	36.7871	-129.237	42.9616	40.7696	-176.493	60.7338	48.0163	-158.648	51.2562	27.5773	-137.416	30.7012	39.4237	-183.924	45.5719	49.8334	-163.098	35.4288	32.4912	-147.502	18.5828	44.4523	-194.427	25.706	51.4855	-172.695	23.4604	37.6175	-152.54	16.6007	49.267	-200.265	38.7256	92.7693	-205.985	28.6283	116.475	-186.097	51.3808	111.522	
69	0.575	-154.691	43.1746	122.9	-132.119	41.8523	97.3942	-122.599	41.783	76.5224	-119.66	34.5747	54.0466	-160.818	76.3303	63.1803	-145.708	65.239	40.4061	-130.135	44.4041	43.1604	-175.98	62.4873	48.4126	-159.664	53.0604	29.5089	-138.006	29.9035	42.3712	-186.82	45.1696	50.3243	-168.074	37.6434	32.6847	-147.589	23.1999	45.0605	-195.941	29.3953	53.6553	-175.863	27.2572	39.4117	-155.985	17.0792	44.7274	-203.479	38.3307	98.8405	-206.361	27.5021	122.433	-186.441	52.36	115.858	
70	0.583333	-152.201	43.8841	124.378	-135.768	39.2152	99.7431	-123.231	39.7178	77.701	-121.135	34.7497	53.9323	-161.497	76.9129	65.0536	-147.613	72.0173	43.4119	-130.612	43.0521	42.7099	-174.639	65.1603	54.2396	-160.247	54.5767	31.2848	-138.505	33.6351	40.7184	-189.261	46.9673	52.7177	-165.561	39.375	34.4036	-147.723	20.5517	45.741	-197.907	30.7475	54.211	-182.595	25.6081	38.6438	-156.133	18.6432	45.8718	-204.173	39.8028	97.4985	-202.987	31.7895	124.345	-185.982	52.7495	118.249	
71	0.591667	-153.618	44.4931	121.4	-133.511	37.3932	102.564	-126.558	37.704	78.3873	-120.342	32.4744	54.5777	-165.34	72.6453	63.8259	-148.37	67.0539	41.9321	-132.062	42.7595	42.0235	-178.024	64.8695	54.4703	-159.833	56.4686	31.8986	-139.706	30.1079	40.6544	-187.884	49.0481	51.4132	-172.669	41.7672	34.2114	-150.1	20.4142	42.7183	-200.584	29.617	59.598	-183.147	27.7041	39.6386	-158.083	18.7638	41.7106	-204.218	40.7333	96.7269	-206.747	32.2056	122.639	-184.911	55.6533	117.956	
72	0.6	-154.524	41.9619	124.991	-135.753	36.8769	100.769	-124.145	37.9313	78.6711	-124.282	32.6812	54.7398	-166.571	73.3782	63.3223	-152.757	67.9592	40.3826	-133.78	47.1936	38.7875	-180.588	62.8811	50.2498	-163.225	51.1702	29.0088	-144.773	29.1022	36.3903	-191.55	47.3941	50.9227	-171.689	40.6066	32.1115	-150.789	22.7119	40.7443	-199.819	31.5798	59.4177	-186.945	26.7574	38.3346	-163.019	15.2077	37.0261	-207.942	38.9344	98.5911	-208.199	31.5721	125.325	-188.88	52.3289	117.896	
73	0.608333	-158.583	42.0495	123.836	-141.064	38.7817	96.7754	-128.794	38.6371	73.8426	-122.479	32.7904	54.9598	-167.607	74.2249	65.0799	-151.662	70.6565	40.0912	-136.531	44.6387	36.8461	-180.891	64.3251	52.4525	-167.545	55.3159	28.8325	-145.972	28.0313	35.6399	-193.189	48.8623	52.9822	-172.82	40.9395	32.0076	-154.206	21.6611	38.8993	-201.907	31.4944	54.2627	-188.755	24.0261	36.2298	-163.201	17.5854	39.9198	-206.169	41.6348	96.3998	-212.317	30.5605	118.296	-191.021	53.0867	114.682	
74	0.616667	-162.268	42.6065	120.568	-139.344	39.7028	96.8972	-130.839	39.4684	72.1748	-123.153	35.0115	53.5786	-170.309	73.9478	62.9819	-156.791	69.7644	38.6007	-136.531	48.8752	35.7082	-183.513	65.5888	49.2347	-168.953	55.2494	27.7837	-147.339	33.544	32.1949	-194.903	49.3658	53.3899	-176.714	39.5291	28.7316	-160.003	25.2031	34.9715	-206.141	28.9299	54.3535	-192.368	26.9385	37.9342	-167.543	18.5565	38.1585	-210.155	36.3422	97.0429	-211.657	33.3565	122.198	-192.021	53.75	115.608	
75	0.625	-161.383	44.9458	119.741	-143.283	39.4438	94.8546	-132.083	40.8535	75.1843	-126.088	35.5905	53.2575	-175.718	73.6793	61.4456	-159.096	67.9709	36.8082	-138.51	50.3343	35.1839	-186.905	65.5078	50.365	-172.349	55.5675	26.3083	-149.906	30.6857	33.0792	-199.451	46.7782	49.2246	-179.893	42.9121	29.8405	-159.235	21.344	35.8932	-207.047	29.2905	56.7041	-195.852	24.7001	35.5617	-169.551	19.8257	36.2335	-209.512	41.7874	93.8426	-213.114	31.7932	122.948	-197.041	52.1941	116.756	
76	0.633333	-162.834	46.6981	117.059	-143.668	41.1808	95.4994	-137.569	41.0858	72.1301	-127.95	37.548	50.9675	-174.709	76.8221	64.249	-159.626	73.1802	37.6084	-143.872	50.9403	33.746	-189.373	65.5605	47.5027	-174.827	55.0453	24.6076	-152.385	34.6564	29.6235	-199.616	49.3446	50.6252	-182.704	39.3659	27.0414	-164.235	23.7866	32.5312	-210.687	28.6313	53.154	-197.747	25.6916	34.7868	-169.471	17.8953	33.9416	-212.208	37.9538	96.6264	-218.397	30.7177	116.927	-199.479	54.28	111.919	
77	0.641667	-167.709	43.9973	117.574	-147.832	41.2711	92.9635	-135.646	41.3603	71.9741	-130.689	37.4136	51.3474	-178.44	74.5541	61.0297	-162.223	71.8275	35.3747	-143.863	48.6821	32.4713	-189.92	65.9508	48.3339	-175.243	58.2033	25.1767	-155.763	32.6936	28.852	-201.119	47.8597	47.1528	-183.32	38.6293	26.3078	-162.62	22.4638	32.4013	-210.244	30.9125	51.5383	-195.67	26.6608	33.0119	-174.266	20.8425	34.6198	-216.517	39.4842	93.2519	-218.057	29.4004	117.391	-201.206	53.4872	110.689	
78	0.65	-165.002	45.3346	118.291	-147.785	42.1455	90.6651	-138.209	40.9916	71.407	-135.001	36.4964	49.643	-177.833	74.4511	58.0236	-163.554	73.181	35.6513	-145.641	51.5444	31.6393	-194.569	61.3992	48.3151	-174.201	54.4044	22.2401	-154.046	34.4805	27.5452	-203.198	46.9087	49.3624	-186.463	38.7449	24.5899	-166.399	25.2233	28.8337	-211.233	28.2263	54.9668	-195.487	25.9257	31.9715	-174.216	18.809	32.1058	-213.31	37.6568	95.0479	-217.109	30.0438	115.62	-198.089	53.0298	111.734	
79	0.658333	-166.738	44.145	115.283	-147.003	40.9147	91.7286	-134.979	41.4413	70.572	-132.108	36.2502	48.2803	-179.326	72.4619	58.6832	-163.148	67.9618	32.5915	-144.992	51.4433	30.1889	-194.063	61.3015	45.7953	-177.421	57.2099	23.0011	-157.704	32.4823	25.5836	-202.489	48.5152	44.3097	-187.294	38.4732	24.847	-165.643	25.6157	28.9279	-212.089	28.5416	52.5375	-200.696	25.1188	31.8487	-177.074	18.2869	31.2048	-215.204	35.6505	93.7152	-218.181	32.57	115.523	-200.3	53.8184	110.708	
80	0.666667	-168.59	42.9145	114.644	-145.586	39.9837	94.7258	-139.356	40.4814	70.294	-133.643	34.8704	50.7071	-178.73	73.6982	54.8182	-163.223	66.8296	31.7803	-142.337	48.5266	31.7298	-193.665	60.6161	45.2298	-176.905	53.0526	20.6922	-156.281	32.8318	26.0353	-201.927	46.6036	47.5041	-186.853	41.6273	26.8395	-163.053	24.4199	31.7792	-213.804	25.6569	48.598	-198.85	26.3839	33.8459	-176.693	16.1787	30.1879	-218.122	37.7414	88.3712	-216.287	31.2855	116.284	-200.184	52.3496	111.228	
